<svg xmlns="http://www.w3.org/2000/svg" width="1920" height="1080" preserveAspectRatio="xMidYMid meet" version="1.0" viewBox="0 0 1440 810" zoomAndPan="magnify"><defs><clipPath id="0a706d7fbd"><path d="M735 153.527h172V450H735Zm0 0" clip-rule="nonzero"/></clipPath><clipPath id="ea97b908e6"><path d="M624.45 438.07h191v218.051h-191Zm0 0" clip-rule="nonzero"/></clipPath></defs><path fill="#fff" fill-opacity="1" d="M-144-81h1728v972H-144z"/><path fill="#e7eaee" fill-opacity="1" d="M-144-81h1728v972H-144z"/><path fill="#388e3c" fill-opacity="1" fill-rule="nonzero" d="m614.035 264.48-76.45 42.301c-2.866 1.574-4.624 4.5-4.624 7.664v84.64c0 3.165 1.758 6.08 4.625 7.669l76.465 42.328a9.626 9.626 0 0 0 9.238 0l76.445-42.328c2.836-1.59 4.598-4.504 4.598-7.668v-84.64c0-3.165-1.762-6.075-4.629-7.665l-76.43-42.3a9.58 9.58 0 0 0-4.628-1.184c-1.606 0-3.192.39-4.625 1.183m393.343 76.2-12.742 7.043a1.443 1.443 0 0 0-.766 1.277v14.113c0 .532.297 1.016.766 1.278l12.742 7.058a1.593 1.593 0 0 0 1.543 0l12.742-7.058c.47-.262.766-.746.766-1.278V349c0-.531-.297-1.012-.781-1.277l-12.742-7.043a1.48 1.48 0 0 0-.766-.203c-.262 0-.527.062-.762.203"/><g clip-path="url(#0a706d7fbd)"><path fill="#37474f" fill-opacity="1" fill-rule="nonzero" d="m902.98 174.777-37.218-20.77a3.767 3.767 0 0 0-3.754.048 3.798 3.798 0 0 0-1.867 3.257l-.016 125.446-34.324-18.992a9.554 9.554 0 0 0-4.625-1.184 9.58 9.58 0 0 0-4.63 1.184h.016l-76.445 42.296c-2.867 1.575-4.629 4.504-4.629 7.649v84.644c0 3.165 1.762 6.075 4.63 7.665l76.46 42.332a9.647 9.647 0 0 0 9.238 0l76.45-42.332c2.836-1.575 4.597-4.5 4.597-7.665V181.383a7.588 7.588 0 0 0-3.883-6.606Zm-44.945 203.996-34.742 19.239a4.336 4.336 0 0 1-4.188 0l-34.757-19.239c-1.325-.718-2.121-2.058-2.121-3.492v-38.48c0-1.434.796-2.758 2.105-3.488l34.758-19.227h-.016a4.326 4.326 0 0 1 2.102-.527c.73 0 1.449.183 2.101.527l34.743 19.226c1.308.731 2.105 2.07 2.105 3.504v38.48c0 1.419-.797 2.759-2.09 3.477Zm0 0"/></g><path fill="#2e7d32" fill-opacity="1" fill-rule="nonzero" d="m614.035 264.48-81.074 134.606c0 3.164 1.758 6.078 4.625 7.668l76.465 42.328a9.626 9.626 0 0 0 9.238 0l81.043-134.637c0-3.164-1.762-6.074-4.629-7.664l-76.43-42.3a9.58 9.58 0 0 0-4.628-1.184c-1.606 0-3.192.39-4.625 1.183"/><path fill="#4caf50" fill-opacity="1" fill-rule="nonzero" d="m614.035 264.48-76.45 42.301c-2.866 1.574-4.624 4.5-4.624 7.664l81.074 134.637a9.626 9.626 0 0 0 9.238 0l76.446-42.328c2.851-1.59 4.613-4.504 4.613-7.668L623.273 264.48a9.58 9.58 0 0 0-4.628-1.183c-1.606 0-3.192.39-4.625 1.183"/><path fill="#37474f" fill-opacity="1" fill-rule="nonzero" d="m1089.188 306.063-76.434-42.297a9.58 9.58 0 0 0-4.629-1.184c-1.586 0-3.191.39-4.625 1.184h.016l-76.45 42.296a8.949 8.949 0 0 0-4.625 7.836V398.2a8.963 8.963 0 0 0 4.625 7.836l76.465 42.328a9.543 9.543 0 0 0 9.239 0l35.253-19.52c3.227-1.792 3.211-6.417-.027-8.195l-76.715-41.859c-1.293-.734-2.101-2.09-2.101-3.555v-38.418c0-1.433.777-2.757 2.023-3.441l34.82-19.258h-.015a4.337 4.337 0 0 1 2.101-.527c.735 0 1.45.183 2.106.527l34.82 19.274a3.926 3.926 0 0 1 2.024 3.441v31.348c0 1.34.718 2.586 1.886 3.254a3.815 3.815 0 0 0 3.77-.016l37.36-21.703a7.524 7.524 0 0 0 3.737-6.496v-29.29a8.98 8.98 0 0 0-4.624-7.866Zm-576.434 0-76.434-42.297a9.577 9.577 0 0 0-4.625-1.184 9.58 9.58 0 0 0-4.629 1.184h.016l-76.445 42.296a8.945 8.945 0 0 0-4.63 7.836V430.2c0 1.34.72 2.586 1.888 3.258a3.835 3.835 0 0 0 3.77-.016l37.358-21.703a7.51 7.51 0 0 0 3.723-6.496v-68.441c0-1.434.777-2.758 2.024-3.442l34.82-19.257a4.34 4.34 0 0 1 2.105-.528c.73 0 1.45.184 2.102.528l34.82 19.273a3.926 3.926 0 0 1 2.024 3.441v68.442a7.486 7.486 0 0 0 3.742 6.496l37.36 21.703a3.835 3.835 0 0 0 3.769.016 3.823 3.823 0 0 0 1.867-3.274V313.914a8.966 8.966 0 0 0-4.625-7.851Zm0 0"/><g clip-path="url(#ea97b908e6)"><path fill="#2e7c32" fill-opacity="1" fill-rule="nonzero" d="M696.566 629.523c-5.586 3.239-6.644 3.618-11.89 5.477-1.27.434-3.192 1.203.722 3.45l26.282 15.75a16.39 16.39 0 0 0 8.265 2.25l.016.015a16.37 16.37 0 0 0 8.258-2.246l78.676-46.008c5.113-3.02 8.265-8.59 8.265-14.547v-91.96c0-6-3.144-11.571-8.265-14.544l-78.676-46.055c-4.938-2.843-11.547-2.843-16.532 0l-78.585 46.008c-5.102 2.98-8.254 8.59-8.254 14.547v91.961c0 6 3.144 11.57 8.254 14.543l20.617 12.043c9.968 5.012 13.539 5.012 18.097 5.012 14.782 0 23.297-9.063 23.297-24.856v-90.84c0-1.285-1.058-2.28-2.3-2.28h-9.97c-1.277 0-2.3.984-2.3 2.28v90.793c0 7.036-7.16 13.985-18.875 8.075l-21.55-12.606c-.755-.387-1.223-1.25-1.223-2.12v-91.962c0-.898.468-1.765 1.23-2.203l78.586-46.008c.719-.433 1.703-.433 2.43 0l78.632 45.965a2.581 2.581 0 0 1 1.23 2.203v92.004c0 .856-.46 1.723-1.187 2.16l-78.675 46.008c-.68.434-1.703.434-2.43 0l-20.188-12.125c-.601-.39-1.359-.527-1.957-.184Zm0 0"/></g><path fill="#2e7c32" fill-opacity="1" fill-rule="nonzero" d="M744.23 579.156c-20.824 0-25.39-5.308-26.914-15.793a2.26 2.26 0 0 0-2.257-1.941h-10.176c-1.278 0-2.254 1.035-2.254 2.285 0 13.422 7.195 29.434 41.648 29.434 24.868-.047 39.192-10.004 39.192-27.36l-.028.008c0-17.215-11.5-21.793-35.648-25.027-24.45-3.282-26.914-4.965-26.914-10.746 0-4.786 2.094-11.176 20.191-11.176 16.149 0 22.11 3.535 24.575 14.582a2.278 2.278 0 0 0 2.218 1.812h10.223c.637 0 1.234-.254 1.66-.734.426-.48.633-1.125.598-1.77-1.578-19.027-14.055-27.875-39.274-27.875-22.449 0-35.824 9.59-35.824 25.676 0 17.434 13.332 22.274 34.844 24.422 25.773 2.555 27.765 6.387 27.765 11.527.02 8.891-7.05 12.676-23.625 12.676Zm0 0"/></svg>